<svg xmlns="http://www.w3.org/2000/svg" width="84" height="23" fill="none" viewBox="0 0 84 23">
    <path fill="url(#a)" d="M15.79 17.354v.613c0 4.29-3.25 5.033-7.96 5.033C1.982 23 0 20.806 0 14.289c0-6.452 2.079-8.743 7.863-8.743 5.848 0 7.927 2.452 7.927 8.323V15H4.159c0 4.162.812 5.064 3.704 5.064 2.632 0 3.866-.418 3.866-2.354v-.355h4.06zm3.147 5.592H23V.008h-4.062v22.938zm23.086-5.592v.613c0 4.29-3.25 5.033-7.96 5.033-5.848 0-7.83-2.194-7.83-8.711 0-6.452 2.08-8.743 7.863-8.743 5.849 0 7.928 2.452 7.928 8.323V15H30.392c0 4.162.812 5.064 3.704 5.064 2.631 0 3.866-.418 3.866-2.354v-.355h4.061zm-7.895-8.872c-2.826 0-3.736 1-3.736 4h7.57c0-3-.974-4-3.834-4zm14.91 3.393h1.165l4.94-6.33h4.645l-6.312 8.4 7.245 9.001h-4.906l-5.197-7.12h-1.58v7.12h-3.946V.01h3.946v11.866zm23.511-1.393c0-1.58-.682-2.13-3.575-2.13-2.924 0-3.313.485-3.313 2.26 0 1.386.487 1.71 4.581 2 3.801.257 6.823 1.226 6.823 4.806 0 4.808-3.185 5.582-7.571 5.582-3.54 0-7.992-.065-7.992-4.678v-.904h4.159c0 2.227.78 2.775 2.924 2.775h1.234c2.339 0 3.281-.678 3.281-2.355 0-1.485-.942-2.001-4.417-2.194-4.614-.29-7.18-1.226-7.18-5.097 0-4.259 2.923-5 7.439-5 3.087 0 7.57.128 7.57 4.193 0 .161-.032.516-.064.742h-3.899zM83.382 2.8v-.101A2.747 2.747 0 0 0 80.634 0a2.742 2.742 0 0 0-2.749 2.748 2.743 2.743 0 0 0 2.75 2.748A2.747 2.747 0 0 0 83.381 2.8zm-2.748 2.07a2.122 2.122 0 0 1-2.127-2.129A2.11 2.11 0 0 1 80.633.627c1.162 0 2.128.952 2.128 2.128a2.123 2.123 0 0 1-2.128 2.114zm.316-2.31h-.878v-.8h.75c.375 0 .648.06.648.354 0 .375-.18.447-.52.447zm-.316.478l.663 1.218h.708l-.722-1.254c.526-.037.808-.26.808-.808 0-.787-.469-.91-1.154-.91h-1.486v2.972h.62V3.037h.563zM7.895 8.482c-2.827 0-3.736 1-3.736 4h7.57c0-3-.975-4-3.834-4z"/>
    <defs>
        <linearGradient id="a" x1="83.382" x2="0" gradientUnits="userSpaceOnUse">
            <stop stop-color="#0061FF"/>
            <stop offset="1" stop-color="#0045CF"/>
        </linearGradient>
    </defs>
</svg>
